<?xml version="1.0" standalone="no"?>
<svg xmlns:xlink="http://www.w3.org/1999/xlink" xmlns="http://www.w3.org/2000/svg" width="24" height="24" viewBox="0 0 24 24" fill="none" data-test-id="undefined-copy-button"><path fill-rule="evenodd" clip-rule="evenodd" d="M6.74989 6.75H5.90771C4.80315 6.75 3.90771 7.64543 3.90771 8.75V19.75C3.90771 20.8546 4.80315 21.75 5.90772 21.75H13.7498C14.8544 21.75 15.7498 20.8546 15.7498 19.75V18.7501H7.74989C7.19761 18.7501 6.74989 18.3024 6.74989 17.7501V6.75Z" fill="black"/><path fill-rule="evenodd" clip-rule="evenodd" d="M13.5315 3.03711C13.5109 3.11701 13.5 3.20078 13.5 3.28711V8.03711C13.5 8.58939 13.9477 9.03711 14.5 9.03711H19.25C19.3363 9.03711 19.4201 9.02617 19.5 9.0056V15.2871C19.5 16.3917 18.6046 17.2871 17.5 17.2871H10.25C9.14543 17.2871 8.25 16.3917 8.25 15.2871V5.03711C8.25 3.93254 9.14543 3.03711 10.25 3.03711H13.5315Z" fill="black"/><path d="M15 6.90841C15 7.4607 15.4477 7.90841 16 7.90841H18.5534C19.4443 7.90841 19.8905 6.83127 19.2605 6.20131L16.7071 3.64792C16.0771 3.01796 15 3.46413 15 4.35503V6.90841Z" fill="black"/></svg>