<?xml version="1.0" standalone="no"?>
<svg xmlns:xlink="http://www.w3.org/1999/xlink" width="20" height="20" viewBox="0 0 20 20" fill="none" xmlns="http://www.w3.org/2000/svg"><path fill-rule="evenodd" clip-rule="evenodd" fill="#FFFFFF" d="M1 0C0.447715 0 0 0.447716 0 1V7.57144C0 8.12373 0.447715 8.57144 1 8.57144H7.57373C8.12602 8.57144 8.57373 8.12372 8.57373 7.57144V1C8.57373 0.447715 8.12602 0 7.57373 0H1ZM1 11.4285C0.447715 11.4285 0 11.8762 0 12.4285V18.9999C0 19.5522 0.447715 19.9999 1 19.9999H7.57373C8.12602 19.9999 8.57373 19.5522 8.57373 18.9999V12.4285C8.57373 11.8762 8.12602 11.4285 7.57373 11.4285H1ZM11.4258 1C11.4258 0.447716 11.8735 0 12.4258 0H18.9995C19.5518 0 19.9995 0.447715 19.9995 1V7.57144C19.9995 8.12372 19.5518 8.57144 18.9995 8.57144H12.4258C11.8735 8.57144 11.4258 8.12373 11.4258 7.57144V1ZM12.4258 11.4285C11.8735 11.4285 11.4258 11.8762 11.4258 12.4285V18.9999C11.4258 19.5522 11.8735 19.9999 12.4258 19.9999H18.9995C19.5518 19.9999 19.9995 19.5522 19.9995 18.9999V12.4285C19.9995 11.8762 19.5518 11.4285 18.9995 11.4285H12.4258Z"/></svg>