<?xml version="1.0" standalone="no"?>
<svg xmlns:xlink="http://www.w3.org/1999/xlink" xmlns="http://www.w3.org/2000/svg" width="88" height="32" viewBox="0 0 88 28" fill="none" class="Logo_belowLargeDesktopOnly__ctecx" data-test-id="nft-logo"><path d="M40.6299 0.090332H39.9999V27.9603H40.6299V0.090332Z" fill="#BBBBBB"/><path d="M52.7899 20.2005H55.2219V13.0805L60.6459 20.2005H62.7419V9.00049H60.3099V15.8965L55.0619 9.00049H52.7899V20.2005Z" fill="#BBBBBB"/><path d="M66.9346 20.2005H69.3986V15.8645H74.7426V13.6245H69.3986V11.2405H75.4626V9.00049H66.9346V20.2005Z" fill="#BBBBBB"/><path d="M81.5466 20.2005H84.0106V11.2725H87.4186V9.00049H78.1386V11.2725H81.5466V20.2005Z" fill="#BBBBBB"/><path d="M12.65 0.090332L0.579987 7.06033V21.0003L12.65 27.9703L24.72 21.0003V7.06033L12.65 0.090332ZM23.66 20.3903L12.65 26.7503L1.63999 20.3903V7.68033L12.65 1.32033L23.66 7.68033V20.3903Z" fill="white"/><path d="M17.38 6.11035H7.89001L6.79001 10.9504H18.52L17.38 6.11035Z" fill="white"/><path d="M9.58 17.6006V14.3906L6.77 12.6006L3.59 14.9606L7.92 22.5006H9.65L11.7 20.6006V19.6406L9.58 17.6006Z" fill="white"/><path d="M15.73 11.6802H9.59L10.62 14.3802L10.31 17.4002H12.65L15.01 17.3902L14.72 14.3802L15.73 11.6802Z" fill="white"/><path d="M18.54 12.5806L15.76 14.3906V17.6006L13.64 19.6406V20.6006L15.68 22.4806H17.39L21.71 14.9606L18.54 12.5806Z" fill="white"/></svg>