<?xml version="1.0" standalone="no"?>
<svg xmlns:xlink="http://www.w3.org/1999/xlink" width="20" height="20" viewBox="0 0 20 20" fill="none" xmlns="http://www.w3.org/2000/svg"><path fill-rule="evenodd" clip-rule="evenodd" fill="#FFFFFF" d="M0 1C0 0.447716 0.447715 0 1 0H4.45584C5.00813 0 5.45584 0.447715 5.45584 1V4.45458C5.45584 5.00686 5.00813 5.45458 4.45584 5.45458H1C0.447716 5.45458 0 5.00686 0 4.45458V1ZM0 8.27271C0 7.72042 0.447715 7.27271 1 7.27271H4.45584C5.00813 7.27271 5.45584 7.72042 5.45584 8.27271V11.7273C5.45584 12.2796 5.00813 12.7273 4.45584 12.7273H1C0.447716 12.7273 0 12.2796 0 11.7273V8.27271ZM1 14.5454C0.447715 14.5454 0 14.9931 0 15.5454V19C0 19.5523 0.447716 20 1 20H4.45584C5.00813 20 5.45584 19.5523 5.45584 19V15.5454C5.45584 14.9931 5.00813 14.5454 4.45584 14.5454H1ZM7.27734 1C7.27734 0.447716 7.72506 0 8.27734 0H11.7332C12.2855 0 12.7332 0.447715 12.7332 1V4.45458C12.7332 5.00686 12.2855 5.45458 11.7332 5.45458H8.27734C7.72506 5.45458 7.27734 5.00686 7.27734 4.45458V1ZM15.543 0C14.9907 0 14.543 0.447716 14.543 1V4.45458C14.543 5.00686 14.9907 5.45458 15.543 5.45458H18.9988C19.5511 5.45458 19.9988 5.00686 19.9988 4.45458V1C19.9988 0.447715 19.5511 0 18.9988 0H15.543ZM7.27734 8.27271C7.27734 7.72042 7.72506 7.27271 8.27734 7.27271H11.7332C12.2855 7.27271 12.7332 7.72042 12.7332 8.27271V11.7273C12.7332 12.2796 12.2855 12.7273 11.7332 12.7273H8.27734C7.72506 12.7273 7.27734 12.2796 7.27734 11.7273V8.27271ZM8.27734 14.5454C7.72506 14.5454 7.27734 14.9931 7.27734 15.5454V19C7.27734 19.5523 7.72506 20 8.27734 20H11.7332C12.2855 20 12.7332 19.5523 12.7332 19V15.5454C12.7332 14.9931 12.2855 14.5454 11.7332 14.5454H8.27734ZM14.543 8.27271C14.543 7.72042 14.9907 7.27271 15.543 7.27271H18.9988C19.5511 7.27271 19.9988 7.72042 19.9988 8.27271V11.7273C19.9988 12.2796 19.5511 12.7273 18.9988 12.7273H15.543C14.9907 12.7273 14.543 12.2796 14.543 11.7273V8.27271ZM15.543 14.5454C14.9907 14.5454 14.543 14.9931 14.543 15.5454V19C14.543 19.5523 14.9907 20 15.543 20H18.9988C19.5511 20 19.9988 19.5523 19.9988 19V15.5454C19.9988 14.9931 19.5511 14.5454 18.9988 14.5454H15.543Z"/></svg>